<?xml version="1.0" ?><svg xmlns="http://www.w3.org/2000/svg" viewBox="0 0 32 32"><g id="_13_user-down-01" data-name="13 user-down-01"><path d="M14,20a7,7,0,0,0,7-7V10A7,7,0,0,0,7,10v3A7,7,0,0,0,14,20ZM9,10a5,5,0,0,1,10,0v3A5,5,0,0,1,9,13Z"/><path d="M14,21A14,14,0,0,0,3.58,25.65,2,2,0,0,0,5.07,29H22.93a2,2,0,0,0,1.49-3.35A14,14,0,0,0,14,21Zm8.93,6L5.07,27a12,12,0,0,1,17.87,0Z"/><polygon points="27.35 17.23 26 18.59 26 14.01 24 14.01 24 18.59 22.65 17.23 21.23 18.65 25 22.41 28.77 18.65 27.35 17.23"/></g></svg>