<svg xmlns="http://www.w3.org/2000/svg" viewBox="0 0 750 500"><g id="freepik--background-simple--inject-31"><g><path d="M687.38,93.33c-12.06,1.25-26.77,5.09-33.32,5.96-34.45,4.58-68.99,8.57-103.58,11.93-56.24,5.46-112.77,9.52-169.31,9.52-84.13,0-166.95-17.18-250.2-26.92-19.8-2.31-79.4-15.31-88.92,11.01-12.35,34.13-11.15,75.42-12.01,111.31-.92,38.29-1.79,76.54-1.63,114.8,.06,13.1,1.49,26.59,7.65,38.15,7.71,14.48,21.7,20.89,37.25,23.18,28.14,4.13,56.68,3.5,85.03,3.11,38.32-.54,76.61-2.74,114.85-5.13,66.19-4.13,133.44-11.92,199.82-8.76,46.6,2.22,92.53,10.52,138.34,18.84,18.56,3.37,36.8,8.39,55.58,10.48,15.21,1.69,38.44,3.48,50.74-7.87,10.33-9.53,10.39-32.26,11.53-44.94,2.44-27.32,2.36-54.89,1.73-82.29-1.18-51.34-2.79-104.75-13.07-155.24-3.49-17.12-11.57-29.1-30.48-27.14Z" style="fill:#FF81AE;"></path><path d="M687.38,93.33c-12.06,1.25-26.77,5.09-33.32,5.96-34.45,4.58-68.99,8.57-103.58,11.93-56.24,5.46-112.77,9.52-169.31,9.52-84.13,0-166.95-17.18-250.2-26.92-19.8-2.31-79.4-15.31-88.92,11.01-12.35,34.13-11.15,75.42-12.01,111.31-.92,38.29-1.79,76.54-1.63,114.8,.06,13.1,1.49,26.59,7.65,38.15,7.71,14.48,21.7,20.89,37.25,23.18,28.14,4.13,56.68,3.5,85.03,3.11,38.32-.54,76.61-2.74,114.85-5.13,66.19-4.13,133.44-11.92,199.82-8.76,46.6,2.22,92.53,10.52,138.34,18.84,18.56,3.37,36.8,8.39,55.58,10.48,15.21,1.69,38.44,3.48,50.74-7.87,10.33-9.53,10.39-32.26,11.53-44.94,2.44-27.32,2.36-54.89,1.73-82.29-1.18-51.34-2.79-104.75-13.07-155.24-3.49-17.12-11.57-29.1-30.48-27.14Z" style="fill:#fff; opacity:.7;"></path></g></g><g id="freepik--Floor--inject-31"><line x1="17.34" y1="452.1" x2="732.43" y2="452.1" style="fill:none; stroke:#263238; stroke-linecap:round; stroke-linejoin:round;"></line></g><g id="freepik--Zoom--inject-31"><path d="M690.37,227.44c23.5-21.39,38.25-52.22,38.25-86.5,0-64.58-52.35-116.94-116.94-116.94s-116.94,52.35-116.94,116.94c0,37.6,17.75,71.05,45.32,92.44l-61.72,119.49,81.52-107.08c15.62,7.73,33.2,12.09,51.81,12.09,26.58,0,51.09-8.87,70.73-23.81" style="fill:none; stroke:#263238; stroke-linecap:round; stroke-linejoin:round;"></path></g><g id="freepik--Blood_Cells--inject-31"><g><g><circle cx="561.87" cy="98.27" r="36.05" style="fill:#FF81AE; stroke:#263238; stroke-linecap:round; stroke-linejoin:round;"></circle><circle cx="561.87" cy="98.27" r="16.98" style="fill:#fff; opacity:.37;"></circle><path d="M550.93,69.92c1.26,1.85-.81,5.45-4.61,8.03-3.8,2.58-7.91,3.17-9.16,1.32-1.26-1.85,.81-5.45,4.61-8.03,3.8-2.58,7.91-3.17,9.16-1.32Z" style="fill:#fff;"></path><path d="M559.66,86.71c.89,1.31-.57,3.86-3.27,5.69-2.7,1.83-5.6,2.25-6.49,.93-.89-1.31,.57-3.86,3.27-5.69,2.7-1.83,5.6-2.25,6.49-.93Z" style="fill:#fff; opacity:.43;"></path></g><g><circle cx="667.43" cy="103.87" r="36.05" style="fill:#FF81AE; stroke:#263238; stroke-linecap:round; stroke-linejoin:round;"></circle><circle cx="667.43" cy="103.87" r="16.98" style="fill:#fff; opacity:.37;"></circle><path d="M656.49,75.52c1.26,1.85-.81,5.45-4.61,8.03-3.8,2.58-7.91,3.17-9.16,1.32-1.26-1.85,.81-5.45,4.61-8.03s7.91-3.17,9.16-1.32Z" style="fill:#fff;"></path><path d="M665.22,92.31c.89,1.31-.57,3.86-3.27,5.69-2.7,1.83-5.6,2.25-6.49,.93-.89-1.31,.57-3.86,3.27-5.69,2.7-1.83,5.6-2.25,6.49-.93Z" style="fill:#fff; opacity:.43;"></path></g><g><circle cx="595.35" cy="138.82" r="24.93" style="fill:#FF81AE; stroke:#263238; stroke-linecap:round; stroke-linejoin:round;"></circle><circle cx="595.35" cy="138.82" r="11.74" style="fill:#fff; opacity:.37;"></circle><path d="M587.78,119.22c.87,1.28-.56,3.77-3.19,5.55-2.63,1.78-5.47,2.19-6.34,.91-.87-1.28,.56-3.77,3.19-5.55s5.47-2.19,6.34-.91Z" style="fill:#fff;"></path><path d="M593.82,130.82c.62,.91-.4,2.67-2.26,3.93-1.86,1.26-3.87,1.55-4.49,.65-.62-.91,.4-2.67,2.26-3.93,1.86-1.26,3.87-1.55,4.49-.65Z" style="fill:#fff; opacity:.43;"></path></g><g><circle cx="653.91" cy="198.19" r="19.54" transform="translate(294.7 779.44) rotate(-75.15)" style="fill:#FF81AE; stroke:#263238; stroke-linecap:round; stroke-linejoin:round;"></circle><circle cx="653.91" cy="198.19" r="9.2" transform="translate(293.95 778.97) rotate(-75.07)" style="fill:#fff; opacity:.37;"></circle><path d="M647.98,182.83c.68,1-.44,2.95-2.5,4.35-2.06,1.4-4.29,1.72-4.97,.71-.68-1,.44-2.95,2.5-4.35,2.06-1.4,4.29-1.72,4.97-.71Z" style="fill:#fff;"></path><path d="M652.71,191.93c.48,.71-.31,2.09-1.77,3.08-1.46,.99-3.04,1.22-3.52,.51s.31-2.09,1.77-3.08c1.46-.99,3.04-1.22,3.52-.51Z" style="fill:#fff; opacity:.43;"></path></g><g><circle cx="624.04" cy="79.86" r="24.93" transform="translate(18 248.76) rotate(-22.87)" style="fill:#FF81AE; stroke:#263238; stroke-linecap:round; stroke-linejoin:round;"></circle><circle cx="624.04" cy="79.86" r="11.74" transform="translate(17.44 246.7) rotate(-22.67)" style="fill:#fff; opacity:.37;"></circle><path d="M616.47,60.26c.87,1.28-.56,3.77-3.19,5.55-2.63,1.78-5.47,2.19-6.34,.91-.87-1.28,.56-3.77,3.19-5.55s5.47-2.19,6.34-.91Z" style="fill:#fff;"></path><path d="M622.51,71.87c.62,.91-.4,2.67-2.26,3.93-1.86,1.26-3.87,1.55-4.49,.65-.62-.91,.4-2.67,2.26-3.93,1.86-1.26,3.87-1.55,4.49-.65Z" style="fill:#fff; opacity:.43;"></path></g><g><circle cx="683.54" cy="153.44" r="24.93" style="fill:#FF81AE; stroke:#263238; stroke-linecap:round; stroke-linejoin:round;"></circle><circle cx="683.54" cy="153.44" r="11.74" style="fill:#fff; opacity:.37;"></circle><path d="M675.97,133.84c.87,1.28-.56,3.77-3.19,5.55-2.63,1.78-5.47,2.19-6.34,.91-.87-1.28,.56-3.77,3.19-5.55,2.63-1.78,5.47-2.19,6.34-.91Z" style="fill:#fff;"></path><path d="M682.01,145.45c.62,.91-.4,2.67-2.26,3.93-1.86,1.26-3.87,1.55-4.49,.65-.62-.91,.4-2.67,2.26-3.93,1.86-1.26,3.87-1.55,4.49-.65Z" style="fill:#fff; opacity:.43;"></path></g><g><circle cx="540.36" cy="173.66" r="24.93" style="fill:#FF81AE; stroke:#263238; stroke-linecap:round; stroke-linejoin:round;"></circle><circle cx="540.36" cy="173.66" r="11.74" style="fill:#fff; opacity:.37;"></circle><path d="M532.79,154.05c.87,1.28-.56,3.77-3.19,5.55-2.63,1.78-5.47,2.19-6.34,.91-.87-1.28,.56-3.77,3.19-5.55,2.63-1.78,5.47-2.19,6.34-.91Z" style="fill:#fff;"></path><path d="M538.83,165.66c.62,.91-.4,2.67-2.26,3.93s-3.87,1.55-4.49,.65c-.62-.91,.4-2.67,2.26-3.93s3.87-1.55,4.49-.65Z" style="fill:#fff; opacity:.43;"></path></g><g><circle cx="602.78" cy="209.87" r="24.93" transform="translate(-34.18 250.71) rotate(-22.87)" style="fill:#FF81AE; stroke:#263238; stroke-linecap:round; stroke-linejoin:round;"></circle><circle cx="602.78" cy="209.87" r="11.74" transform="translate(28.15 487.7) rotate(-45)" style="fill:#fff; opacity:.37;"></circle><path d="M595.21,190.27c.87,1.28-.56,3.77-3.19,5.55-2.63,1.78-5.47,2.19-6.34,.91-.87-1.28,.56-3.77,3.19-5.55s5.47-2.19,6.34-.91Z" style="fill:#fff;"></path><path d="M601.25,201.87c.62,.91-.4,2.67-2.26,3.93-1.86,1.26-3.87,1.55-4.49,.65-.62-.91,.4-2.67,2.26-3.93,1.86-1.26,3.87-1.55,4.49-.65Z" style="fill:#fff; opacity:.43;"></path></g></g></g><g id="freepik--Microscope--inject-31"><g><rect x="439.73" y="372.04" width="33.25" height="28.89" transform="translate(912.71 772.96) rotate(180)" style="fill:#fff; stroke:#263238; stroke-linecap:round; stroke-linejoin:round;"></rect><path d="M442.79,181.23v34.13c-33.17,1.59-51.18,16.17-60.47,28.17-5.57,7.19-8.46,16.09-8.46,25.19v95.72c0,12.13,9.83,21.96,21.96,21.96h77.75v16.9h-109.82c-9.33,0-16.9-7.56-16.9-16.9h0V235.67c0-8.74,3.19-17.16,8.91-23.77,42.29-48.87,87.04-30.68,87.04-30.68Z" style="fill:#FF81AE; stroke:#263238; stroke-linecap:round; stroke-linejoin:round;"></path><rect x="442.79" y="91.27" width="27.13" height="124.1" transform="translate(912.71 306.63) rotate(180)" style="fill:#fff; stroke:#263238; stroke-linecap:round; stroke-linejoin:round;"></rect><rect x="439.73" y="125.84" width="33.25" height="124.1" transform="translate(912.71 375.78) rotate(180)" style="fill:#fff; stroke:#263238; stroke-linecap:round; stroke-linejoin:round;"></rect><rect x="439.73" y="87.59" width="33.25" height="10.08" transform="translate(912.71 185.26) rotate(180)" style="fill:#263238; stroke:#263238; stroke-linecap:round; stroke-linejoin:round;"></rect><g><rect x="424.67" y="363.78" width="63.37" height="4.44" style="fill:none; stroke:#263238; stroke-linecap:round; stroke-linejoin:round;"></rect><rect x="422.93" y="361.6" width="66.85" height="2.15" style="fill:none; stroke:#263238; stroke-linecap:round; stroke-linejoin:round;"></rect></g><rect x="421.31" y="368.73" width="70.09" height="6.2" transform="translate(912.71 743.66) rotate(180)" style="fill:#263238; stroke:#263238; stroke-linecap:round; stroke-linejoin:round;"></rect><rect x="435.1" y="153.21" width="42.51" height="142.83" transform="translate(912.71 449.24) rotate(180)" style="fill:#fff; stroke:#263238; stroke-linecap:round; stroke-linejoin:round;"></rect><rect x="435.1" y="160.41" width="42.51" height="142.83" transform="translate(912.71 463.65) rotate(180)" style="fill:#263238; stroke:#263238; stroke-linecap:round; stroke-linejoin:round;"></rect><polygon points="439.35 321.94 473.36 321.94 477.61 303.93 435.1 303.93 439.35 321.94" style="fill:#fff; stroke:#263238; stroke-linecap:round; stroke-linejoin:round;"></polygon><rect x="447.51" y="321.66" width="17.69" height="24.61" transform="translate(912.71 667.93) rotate(180)" style="fill:#fff; stroke:#263238; stroke-linecap:round; stroke-linejoin:round;"></rect><circle cx="434.26" cy="192.56" r="25.43" transform="translate(-31 288.48) rotate(-35.56)" style="fill:#fff; stroke:#263238; stroke-linecap:round; stroke-linejoin:round;"></circle><path d="M413.84,192.56c0-11.28,9.14-20.42,20.42-20.42s20.42,9.14,20.42,20.42-9.14,20.42-20.42,20.42-20.42-9.14-20.42-20.42Z" style="fill:#fff; stroke:#263238; stroke-linecap:round; stroke-linejoin:round;"></path><path d="M404.32,391.69l.21,.06c2.73-4.64,7.75-7.76,13.52-7.76,8.66,0,15.69,7.02,15.69,15.69l-.68,33.44h-50.01l21.27-41.43Z" style="fill:#263238; stroke:#263238; stroke-linecap:round; stroke-linejoin:round;"></path><path d="M407.9,399.67c0-5.61,4.54-10.15,10.15-10.15s10.15,4.55,10.15,10.15-4.54,10.15-10.15,10.15-10.15-4.55-10.15-10.15Z" style="fill:#fff; stroke:#263238; stroke-linecap:round; stroke-linejoin:round;"></path><path d="M295.92,452.1h228.29l-4.38-6.8c-4.38-6.81-11.93-10.93-20.03-10.93h-179.47c-8.1,0-15.64,4.12-20.03,10.93l-4.38,6.8Z" style="fill:#263238; stroke:#263238; stroke-linecap:round; stroke-linejoin:round;"></path></g></g><g id="freepik--Test_tubes--inject-31"><g><g><path d="M241.78,110.94h35.92V385.52c0,9.91-8.05,17.96-17.96,17.96h0c-9.91,0-17.96-8.05-17.96-17.96V110.94h0Z" style="fill:#fff; stroke:#263238; stroke-linecap:round; stroke-linejoin:round;"></path><path d="M241.78,209.88v175.64c0,9.92,8.04,17.96,17.96,17.96h0c9.92,0,17.96-8.04,17.96-17.96V209.88h-35.92Z" style="fill:#FF81AE; stroke:#263238; stroke-linecap:round; stroke-linejoin:round;"></path><rect x="237.75" y="110.94" width="43.96" height="62.36" style="fill:#263238;"></rect><g><line x1="271.75" y1="338.63" x2="271.75" y2="358.32" style="fill:none; stroke:#fff; stroke-linecap:round; stroke-miterlimit:10; stroke-width:3px;"></line><line x1="271.75" y1="226.54" x2="271.75" y2="315.15" style="fill:none; stroke:#fff; stroke-linecap:round; stroke-miterlimit:10; stroke-width:3px;"></line></g></g><g><rect x="248.14" y="261.22" width="28.27" height="67" style="fill:#fff; stroke:#263238; stroke-linecap:round; stroke-linejoin:round;"></rect><rect x="251.02" y="265.92" width="23.18" height="1.19" style="fill:#263238;"></rect><rect x="251.02" y="271.56" width="23.18" height="1.19" style="fill:#263238;"></rect><rect x="251.02" y="273.81" width="23.18" height="1.19" style="fill:#263238;"></rect><rect x="251.02" y="276.25" width="23.18" height="1.19" style="fill:#263238;"></rect><rect x="251.02" y="286.4" width="23.18" height="1.19" style="fill:#263238;"></rect><rect x="251.02" y="292.97" width="23.18" height="1.19" style="fill:#263238;"></rect><rect x="251.02" y="295.23" width="23.18" height="1.19" style="fill:#263238;"></rect><rect x="251.02" y="304.06" width="23.18" height="1.19" style="fill:#263238;"></rect><rect x="251.02" y="306.12" width="23.18" height="1.19" style="fill:#263238;"></rect><rect x="251.02" y="317.21" width="23.18" height="1.19" style="fill:#263238;"></rect><rect x="251.02" y="301.99" width="23.18" height="1.19" style="fill:#263238;"></rect><rect x="251.02" y="268.14" width="23.18" height="2.38" style="fill:#263238;"></rect><rect x="251.02" y="278.85" width="23.18" height="2.38" style="fill:#263238;"></rect><rect x="251.02" y="282.61" width="23.18" height="2.38" style="fill:#263238;"></rect><rect x="251.02" y="289.18" width="23.18" height="2.38" style="fill:#263238;"></rect><rect x="251.02" y="297.83" width="23.18" height="2.38" style="fill:#263238;"></rect><rect x="251.02" y="310.04" width="23.18" height="2.38" style="fill:#263238;"></rect><rect x="251.02" y="313.61" width="23.18" height="2.38" style="fill:#263238;"></rect><rect x="251.02" y="320.56" width="23.18" height="2.38" style="fill:#263238;"></rect></g></g><g><g><path d="M292.78,110.94h35.92V385.52c0,9.91-8.05,17.96-17.96,17.96h0c-9.91,0-17.96-8.05-17.96-17.96V110.94h0Z" style="fill:#fff; stroke:#263238; stroke-linecap:round; stroke-linejoin:round;"></path><path d="M292.78,209.88v175.64c0,9.92,8.04,17.96,17.96,17.96h0c9.92,0,17.96-8.04,17.96-17.96V209.88h-35.92Z" style="fill:#FF81AE; stroke:#263238; stroke-linecap:round; stroke-linejoin:round;"></path><rect x="288.75" y="110.94" width="43.96" height="62.36" style="fill:#263238;"></rect><g><line x1="322.75" y1="338.63" x2="322.75" y2="358.32" style="fill:none; stroke:#fff; stroke-linecap:round; stroke-miterlimit:10; stroke-width:3px;"></line><line x1="322.75" y1="226.54" x2="322.75" y2="315.15" style="fill:none; stroke:#fff; stroke-linecap:round; stroke-miterlimit:10; stroke-width:3px;"></line></g></g><g><rect x="294.9" y="261.22" width="32.07" height="67" style="fill:#fff; stroke:#263238; stroke-linecap:round; stroke-linejoin:round;"></rect><rect x="298.17" y="265.92" width="26.3" height="1.19" style="fill:#263238;"></rect><rect x="298.17" y="271.56" width="26.3" height="1.19" style="fill:#263238;"></rect><rect x="298.17" y="273.81" width="26.3" height="1.19" style="fill:#263238;"></rect><rect x="298.17" y="276.25" width="26.3" height="1.19" style="fill:#263238;"></rect><rect x="298.17" y="286.4" width="26.3" height="1.19" style="fill:#263238;"></rect><rect x="298.17" y="292.97" width="26.3" height="1.19" style="fill:#263238;"></rect><rect x="298.17" y="295.23" width="26.3" height="1.19" style="fill:#263238;"></rect><rect x="298.17" y="304.06" width="26.3" height="1.19" style="fill:#263238;"></rect><rect x="298.17" y="306.12" width="26.3" height="1.19" style="fill:#263238;"></rect><rect x="298.17" y="317.21" width="26.3" height="1.19" style="fill:#263238;"></rect><rect x="298.17" y="301.99" width="26.3" height="1.19" style="fill:#263238;"></rect><rect x="298.17" y="268.14" width="26.3" height="2.38" style="fill:#263238;"></rect><rect x="298.17" y="278.85" width="26.3" height="2.38" style="fill:#263238;"></rect><rect x="298.17" y="282.61" width="26.3" height="2.38" style="fill:#263238;"></rect><rect x="298.17" y="289.18" width="26.3" height="2.38" style="fill:#263238;"></rect><rect x="298.17" y="297.83" width="26.3" height="2.38" style="fill:#263238;"></rect><rect x="298.17" y="310.04" width="26.3" height="2.38" style="fill:#263238;"></rect><rect x="298.17" y="313.61" width="26.3" height="2.38" style="fill:#263238;"></rect><rect x="298.17" y="320.56" width="26.3" height="2.38" style="fill:#263238;"></rect></g></g></g><g id="freepik--Blood_Bag--inject-31"><g><rect x="85.56" y="47.31" width="14.28" height="22.14" style="fill:none; stroke:#263238; stroke-linecap:round; stroke-linejoin:round;"></rect><rect x="150.42" y="47.31" width="14.28" height="22.14" style="fill:none; stroke:#263238; stroke-linecap:round; stroke-linejoin:round;"></rect><rect x="118.77" y="35.86" width="14.28" height="33.58" style="fill:none; stroke:#263238; stroke-linecap:round; stroke-linejoin:round;"></rect><path d="M27,224.5v49.56c0,32.34,26.22,58.56,58.56,58.56h9.82v6.36c0,4.45,3.61,8.05,8.05,8.05h44.95c4.45,0,8.05-3.61,8.05-8.05v-6.36h9.82c32.34,0,58.56-26.22,58.56-58.56V105.87c0-10.2-2.61-19.79-7.2-28.15m-99.04-30.41h-10.34v-14.04c0-4.04-3.27-7.31-7.31-7.31h-15.14c-4.04,0-7.31,3.27-7.31,7.31v14.49c-29,3.5-51.47,28.18-51.47,58.12v105.99M209.38,66.26c-9.58-10.42-22.89-17.36-37.81-18.71v-14.29c0-4.04-3.27-7.31-7.31-7.31h-15.14c-4.04,0-7.31,3.27-7.31,7.31v14.04h-8.42m12.41,291.48h-39.79v-6h39.79v6Z" style="fill:none; stroke:#263238; stroke-linecap:round; stroke-linejoin:round;"></path><path d="M198.62,144.83l1.98-17.07c2.27-19.54-12.19-37.5-31.84-38.44-.59-.03-1.17-.04-1.77-.04h-5.18v-19.85h-9.49v19.85h-21.79v-19.85h-9.49v19.85h-23.59v-19.85h-9.49v19.85h-3.13c-2.4,0-4.75,.23-7.01,.67-17.58,3.43-29.02,20.57-26.29,38.27h0c6.84,44.22,6.49,89.16-1.03,133.28h0c0,17.82,15.37,32.27,34.33,32.27h82.17c18.96,0,34.33-14.45,34.33-32.27l-1.87-14.05c-4.52-34.04-4.81-68.52-.84-102.63Z" style="fill:#FF81AE; stroke:#263238; stroke-linecap:round; stroke-linejoin:round;"></path><rect x="68.77" y="168.57" width="97.73" height="67.02" style="fill:#fff; stroke:#263238; stroke-linecap:round; stroke-linejoin:round;"></rect><g><rect x="78.25" y="178.02" width="21.14" height=".96" style="fill:#263238;"></rect><rect x="78.25" y="182.55" width="21.14" height=".96" style="fill:#263238;"></rect><rect x="78.25" y="184.37" width="21.14" height=".96" style="fill:#263238;"></rect><rect x="78.25" y="186.33" width="21.14" height=".96" style="fill:#263238;"></rect><rect x="78.25" y="194.48" width="21.14" height=".96" style="fill:#263238;"></rect><rect x="78.25" y="199.76" width="21.14" height=".96" style="fill:#263238;"></rect><rect x="78.25" y="201.58" width="21.14" height=".96" style="fill:#263238;"></rect><rect x="78.25" y="208.67" width="21.14" height=".96" style="fill:#263238;"></rect><rect x="78.25" y="210.33" width="21.14" height=".96" style="fill:#263238;"></rect><rect x="78.25" y="219.24" width="21.14" height=".96" style="fill:#263238;"></rect><rect x="78.25" y="207.01" width="21.14" height=".96" style="fill:#263238;"></rect><rect x="78.25" y="179.81" width="21.14" height="1.91" style="fill:#263238;"></rect><rect x="78.25" y="188.42" width="21.14" height="1.91" style="fill:#263238;"></rect><rect x="78.25" y="191.44" width="21.14" height="1.91" style="fill:#263238;"></rect><rect x="78.25" y="196.72" width="21.14" height="1.91" style="fill:#263238;"></rect><rect x="78.25" y="203.67" width="21.14" height="1.91" style="fill:#263238;"></rect><rect x="78.25" y="213.48" width="21.14" height="1.91" style="fill:#263238;"></rect><rect x="78.25" y="216.35" width="21.14" height="1.91" style="fill:#263238;"></rect><rect x="78.25" y="221.93" width="21.14" height="1.91" style="fill:#263238;"></rect></g><g><path d="M115.53,211.96l7.31-34.45h4.64l7.36,34.45h-4.55l-1.57-8.68h-7.02l-1.66,8.68h-4.51Zm6.8-12.12h5.74l-2.89-15.52-2.85,15.52Z" style="fill:#263238;"></path><path d="M138.32,211.96v-34.45h7.91c1.56,0,2.91,.17,4.06,.51,1.15,.34,2.11,.87,2.87,1.57,.77,.71,1.33,1.61,1.7,2.7,.37,1.09,.55,2.38,.55,3.85s-.18,2.64-.53,3.68c-.36,1.04-.89,1.85-1.62,2.45-.72,.6-1.65,.98-2.79,1.15,1.39,.31,2.51,.84,3.36,1.6,.85,.75,1.48,1.72,1.89,2.89,.41,1.18,.62,2.59,.62,4.23,0,1.48-.17,2.82-.51,4.04-.34,1.22-.87,2.25-1.59,3.11-.72,.85-1.64,1.51-2.76,1.98-1.12,.47-2.45,.7-3.98,.7h-9.19Zm4.81-20.07h2.85c1.36,0,2.42-.19,3.19-.57,.77-.38,1.3-1,1.62-1.85,.31-.85,.47-1.96,.47-3.32,0-1.59-.24-2.74-.72-3.44-.48-.71-1.23-1.16-2.25-1.34-1.02-.18-2.35-.28-4-.28h-1.15v10.8Zm0,16.63h3.23c2.15,0,3.59-.5,4.32-1.51,.72-1.01,1.08-2.63,1.08-4.87,0-1.45-.19-2.66-.57-3.64-.38-.98-.99-1.72-1.83-2.21-.84-.5-1.96-.74-3.38-.74h-2.85v12.97Z" style="fill:#263238;"></path></g><rect x="154.66" y="103.01" width="28.63" height="7.5" rx="2.74" ry="2.74" style="fill:#fff;"></rect></g></g><g id="freepik--Symbols--inject-31"><path d="M382.83,42.89v5.52h-14.81c-1.25,0-2.27,1.02-2.27,2.27v27.18c0,1.25,1.02,2.27,2.27,2.27h14.81v14.81c0,1.25,1.02,2.27,2.27,2.27h27.18c1.25,0,2.27-1.02,2.27-2.27v-14.81h14.81c1.25,0,2.27-1.02,2.27-2.27v-27.18c0-1.25-1.02-2.27-2.27-2.27h-14.81v-14.81c0-1.25-1.02-2.27-2.27-2.27h-27.18c-1.25,0-2.27,1.02-2.27,2.27v5.31" style="fill:none; stroke:#263238; stroke-miterlimit:10;"></path><path d="M550.75,312.3v5.36h-14.38c-1.22,0-2.2,.99-2.2,2.2v26.39c0,1.22,.99,2.2,2.2,2.2h14.38v14.38c0,1.22,.99,2.2,2.2,2.2h26.39c1.22,0,2.2-.99,2.2-2.2v-14.38h14.38c1.22,0,2.2-.99,2.2-2.2v-26.39c0-1.22-.99-2.2-2.2-2.2h-14.38v-14.38c0-1.22-.99-2.2-2.2-2.2h-26.39c-1.22,0-2.2,.99-2.2,2.2v5.15" style="fill:none; stroke:#263238; stroke-miterlimit:10;"></path><path d="M319.04,48.24h24.78c2.43,0,4.41,1.97,4.41,4.41v23.62c0,2.43-1.97,4.41-4.41,4.41h-56.06c-2.43,0-4.41-1.97-4.41-4.41v-23.62c0-2.43,1.97-4.41,4.41-4.41h24.42" style="fill:none; stroke:#263238; stroke-miterlimit:10;"></path></g><g id="freepik--Character_2--inject-31"><g><g><g><path d="M681.19,249.04s-4.14,2.6-4.49,4.14c-.35,1.54-4.37,5.91-4.37,7.92s-1.65,3.43-2.6,4.02c-.95,.59-2.48,.12-2.36,.95,.12,.83,1.77,2.95,1.77,2.95,0,0-.07,1.64-.08,3.51,0,2.36,.09,5.09,.55,5.35,.83,.47,7.33-.24,7.33-.24l3.54,9.57,10.75-5.79-2.48-6.74s5.91-5.79,6.97-6.62c1.06-.83,4.14-6.14,3.19-8.98-.95-2.84-6.14-7.56-9.57-8.74-3.43-1.18-8.15-1.3-8.15-1.3Z" style="fill:#fff; stroke:#263238; stroke-linecap:round; stroke-linejoin:round;"></path><path d="M697.26,269.84s2.36,1.54,1.65,3.66c-.71,2.13-5.2,4.49-8.03,2.95-2.84-1.54-2.36-3.78-2.36-3.78l-1.54-3.78s-3.78-.59-4.02-1.54c-.24-.95-.24-4.96-.47-5.67-.24-.71,14.77,8.15,14.77,8.15Z" style="fill:#263238; stroke:#263238; stroke-linecap:round; stroke-linejoin:round;"></path><path d="M673.28,257.2l23.99,12.64s3.43-6.85,3.43-9.93-3.9-9.57-7.21-11.11c-3.31-1.54-8.86-2.6-10.87-2.13-2.01,.47-5.2,2.24-6.26,4.02-1.06,1.77-3.07,6.5-3.07,6.5Z" style="fill:#FF81AE; stroke:#263238; stroke-linecap:round; stroke-linejoin:round;"></path><path d="M682.96,267.36s3.07-3.19,4.37-2.01c1.3,1.18,.24,4.37-.95,5.32-1.18,.95-4.73,1.65-5.2,0" style="fill:#fff; stroke:#263238; stroke-linecap:round; stroke-linejoin:round;"></path><path d="M674.69,263.9c-.14,.77-.47,1.35-.72,1.31-.26-.05-.35-.71-.2-1.48,.14-.77,.47-1.35,.73-1.31,.26,.05,.35,.71,.2,1.48Z" style="fill:#263238;"></path><path d="M675.69,264.22c-.18,1.66-1.2,2.9-2.29,2.79s-1.82-1.55-1.65-3.21c.18-1.66,1.2-2.9,2.29-2.79s1.82,1.55,1.65,3.21Z" style="fill:none; stroke:#263238; stroke-linecap:round; stroke-linejoin:round;"></path><line x1="675.69" y1="264.22" x2="683.52" y2="266.08" style="fill:none; stroke:#263238; stroke-linecap:round; stroke-linejoin:round;"></line><line x1="671.84" y1="262.53" x2="671.14" y2="262.28" style="fill:none; stroke:#263238; stroke-linecap:round; stroke-linejoin:round;"></line><path d="M673.75,260.27s2.01-.59,2.36,1.06" style="fill:none; stroke:#263238; stroke-linecap:round; stroke-linejoin:round;"></path><path d="M670.09,270.67s1.89,.83,3.54,0" style="fill:none; stroke:#263238; stroke-linecap:round; stroke-linejoin:round;"></path></g><path d="M699.43,425.49l-9.94-26.78,9.94-33.19s6.25-11.06,6.57-13.47c0,0-13.15,1.76-26.13,.64-12.99-1.12-15.23-2.08-15.23-2.08l.8,1.28,.64,6.25s1.12,32.71,2.24,36.56c1.12,3.85,7.86,17.64,7.86,17.64l-.48,24.21s-3.69,.32-3.37,1.28c.32,.96,.48,2.57,.48,2.57,0,0-13.15-.8-13.95,.8-.8,1.6,10.1,7.22,14.43,8.34,4.33,1.12,11.86,2.57,11.86,2.57,0,0,6.89-.32,8.98-1.44,2.08-1.12,8.34-5.93,10.42-6.57,2.08-.64,2.4-1.44,1.92-3.05-.48-1.6-7.05-15.55-7.05-15.55Zm-8.5,13.79s-2.57,1.12-3.21,1.44l.8-11.86,.53,.9,2.51,4.23s-1.92,.96-1.76,1.92c.16,.96,1.12,3.37,1.12,3.37Z" style="fill:#fff; stroke:#263238; stroke-linecap:round; stroke-linejoin:round;"></path><g><path d="M704.08,435.62c-1.86-4.18-4.65-10.13-4.65-10.13l-9.94-26.78,9.94-33.19s6.25-11.06,6.57-13.47c0,0-13.15,1.76-26.13,.64-12.99-1.12-15.23-2.08-15.23-2.08l.8,1.28,.64,6.25s1.12,32.71,2.24,36.56c1.12,3.85,7.86,17.64,7.86,17.64l-.48,24.21s-3.69,.32-3.37,1.28c.32,.96,.48,2.57,.48,2.57,0,0,4.65,2.08,6.89,3.21,2.24,1.12,7.05,1.92,7.05,1.92l.96-4.81,.8-11.86,.53,.9,2.51,4.23s-1.92,.96-1.76,1.92c.16,.96,1.12,3.37,1.12,3.37,0,0,3.05,.32,4.33-.16,.9-.34,5.91-2.34,8.82-3.5Z" style="fill:#FF81AE; stroke:#263238; stroke-linecap:round; stroke-linejoin:round;"></path><line x1="689.17" y1="400.64" x2="688.69" y2="425.01" style="fill:none; stroke:#263238; stroke-linecap:round; stroke-linejoin:round;"></line><path d="M673.14,357.67l7.54,4.65s-4.97,33.51-4.97,36.88,.48,13.15,.48,13.15" style="fill:none; stroke:#263238; stroke-linecap:round; stroke-linejoin:round;"></path></g><g><g><polygon points="662.16 309.04 669.74 310.41 667.64 316.7 659.66 312.83 662.16 309.04" style="fill:#fff; stroke:#263238; stroke-linecap:round; stroke-linejoin:round;"></polygon><path d="M658.69,305.41s2.58,1.45,3.14,2.82c.56,1.37,2.74,1.21,2.58,3.23-.16,2.02-1.69,3.31-4.76,3.23-3.06-.08-8.47-4.11-9.11-4.84-.65-.73,2.98-4.35,4.03-4.6s4.11,.16,4.11,.16Z" style="fill:#FF81AE; stroke:#263238; stroke-linecap:round; stroke-linejoin:round;"></path><line x1="657.95" y1="298.46" x2="647.74" y2="308.66" style="fill:#263238; stroke:#263238; stroke-linecap:round; stroke-linejoin:round;"></line><path d="M653.48,302.28s-2.71-.8-3.35,0c-.64,.8-.16,5.1-.16,5.1l3.51-5.1Z" style="fill:#FF81AE; stroke:#263238; stroke-linecap:round; stroke-linejoin:round;"></path><path d="M648.68,303.66s-2.16,.63-2.33,1.59c-.16,.97,.32,3.39,.65,3.79,.32,.4,1.29-1.37,1.29-1.37,0,0-.19-2.38,.39-4.01Z" style="fill:#FF81AE; stroke:#263238; stroke-linecap:round; stroke-linejoin:round;"></path><path d="M650.13,302.28s-2.16,.63-2.33,1.59c-.16,.97,.32,3.39,.65,3.79s1.29-1.37,1.29-1.37c0,0-.19-2.38,.39-4.01Z" style="fill:#FF81AE; stroke:#263238; stroke-linecap:round; stroke-linejoin:round;"></path><path d="M657.97,304.76l-2.92-2.29-5.36,3.35s-.25,1.42,1.22,1.52c1.47,.1,3.51-.64,3.51-.64,0,0,.31,1.81,1.85,2.25s3.98,.81,4.02-1.68c.02-.92-2.31-2.51-2.31-2.51Z" style="fill:#FF81AE; stroke:#263238; stroke-linecap:round; stroke-linejoin:round;"></path></g><path d="M690.88,279.53s-12.05,8.86-16.54,13.35-6.73,16.42-6.73,18.31-1.77,18.91-1.77,18.91l-3.19,22.45s14.77,4.02,27.29,3.66c12.52-.35,18.79-3.07,18.79-3.07l-7.68-30.72s-2.6-29.42-5.08-34.97c-2.48-5.55-5.08-7.92-5.08-7.92Z" style="fill:#FF81AE; stroke:#263238; stroke-linecap:round; stroke-linejoin:round;"></path><polygon points="661.14 317.44 622.06 303.4 629.88 301.97 661.86 313.9 661.14 317.44" style="fill:#263238; stroke:#263238; stroke-linecap:round; stroke-linejoin:round;"></polygon><polyline points="691.12 335.3 675.64 336.48 675.99 338.84 691.83 337.78" style="fill:none; stroke:#263238; stroke-linecap:round; stroke-linejoin:round;"></polyline></g><path d="M688.75,290.28s-4.37,1.65-5.2,3.07c-.83,1.42-7.33,22.33-7.33,22.33l16.9,5.79s4.25-19.97,4.25-23.16-1.06-5.91-2.48-7.33" style="fill:#FF81AE; stroke:#263238; stroke-linecap:round; stroke-linejoin:round;"></path><path d="M652.36,318.64s19.38,7.09,22.33,8.39c2.95,1.3,9.22,4.37,11.11,3.31,1.89-1.06,3.43-10.04,3.43-10.04l-11.93-4.02-24.1-4.25-.83,6.62Z" style="fill:#fff; stroke:#263238; stroke-linecap:round; stroke-linejoin:round;"></path><path d="M672.72,439.62c.07,.45,.1,.78,.1,.78,0,0-13.15-.8-13.95,.8-.8,1.6,10.1,7.22,14.43,8.34,4.33,1.12,11.86,2.57,11.86,2.57l1.6-6.57c-2.29-.43-12.01-4.96-14.05-5.91Z" style="fill:#fff; stroke:#263238; stroke-linecap:round; stroke-linejoin:round;"></path><path d="M685.16,452.1l.48-1.99c-14.4-1.37-22.67-6.41-26.3-9.28-.24,.11-.41,.23-.48,.37-.8,1.6,10.1,7.22,14.43,8.34,4.33,1.12,11.86,2.57,11.86,2.57Z" style="fill:#fff; stroke:#263238; stroke-linecap:round; stroke-linejoin:round;"></path><g><path d="M704.57,444.09c2.08-.64,2.4-1.44,1.92-3.05-.18-.58-1.16-2.81-2.34-5.4l-.07-.02-9.94,3.98-3.21-.32-3.21,1.44-2.57,11.38s6.89-.32,8.98-1.44c2.08-1.12,8.34-5.93,10.42-6.57Z" style="fill:#fff; stroke:#263238; stroke-linecap:round; stroke-linejoin:round;"></path><path d="M706.49,441.04c-.04-.14-.13-.38-.26-.69-3.86,2.63-9.2,6.09-12.57,7.59-4.03,1.79-6.65,1.63-7.87,1.37l-.63,2.8s6.89-.32,8.98-1.44c2.08-1.12,8.34-5.93,10.42-6.57,2.08-.64,2.4-1.44,1.92-3.05Z" style="fill:#fff; stroke:#263238; stroke-linecap:round; stroke-linejoin:round;"></path></g></g><path d="M653.19,312.02s-1.94-3.52-3.22-4.63-6.38-.32-7.5-.32-2.87-1.91-3.19-.48q-.32,1.44,.64,1.91c.96,.48,4.47,1.59,4.47,1.59l-9.89-1.91s.32,2.55,1.44,3.35c1.12,.8,2.55,3.03,2.55,3.03,0,0,1.12,1.28,2.87,1.91,1.75,.64,11,2.16,11,2.16l.83-6.62Z" style="fill:#FF81AE; stroke:#263238; stroke-linecap:round; stroke-linejoin:round;"></path></g></g><g id="freepik--Character_1--inject-31"><g><path d="M90.38,324.94s-1.41,7.98-1.21,9.19c.2,1.21,2.32,6.26,6.36,6.67,4.04,.4,7.88-.61,7.88-.61l.91-11.71-13.94-3.53Z" style="fill:#fff; stroke:#263238; stroke-linecap:round; stroke-linejoin:round;"></path><path d="M85.72,359.82c-3.52,.46-7.17-1.04-9.29-4.19-2.99-4.44-1.82-10.46,2.61-13.45l129.45-87.32c4.44-2.99,10.46-1.82,13.45,2.61,2.99,4.44,1.82,10.46-2.61,13.45l-129.45,87.32c-1.29,.87-2.71,1.39-4.16,1.58Z" style="fill:#263238;"></path><path d="M259.84,143.46c-41.28,5.39-70.37,43.22-64.98,84.49,5.39,41.28,43.22,70.37,84.49,64.98,41.28-5.39,70.37-43.22,64.98-84.49-5.39-41.28-43.22-70.37-84.49-64.98Zm17.31,132.65c-31.98,4.17-61.29-18.37-65.47-50.35-4.17-31.98,18.37-61.29,50.35-65.47,31.98-4.17,61.29,18.37,65.47,50.35s-18.37,61.29-50.35,65.47Z" style="fill:#263238; stroke:#263238; stroke-linecap:round; stroke-linejoin:round;"></path><g><path d="M257.2,143.8c-41.28,5.39-70.37,43.22-64.98,84.49,5.39,41.28,43.22,70.37,84.49,64.98,41.28-5.39,70.37-43.22,64.98-84.49-5.39-41.28-43.22-70.37-84.49-64.98Zm17.31,132.65c-31.98,4.17-61.29-18.37-65.47-50.35-4.17-31.98,18.37-61.29,50.35-65.47,31.98-4.17,61.29,18.37,65.47,50.35,4.17,31.98-18.37,61.29-50.35,65.47Z" style="fill:#fff; stroke:#263238; stroke-linecap:round; stroke-linejoin:round;"></path><g><g><path d="M108.82,256.56s-5.09,2.24-6.71,6.1c-1.63,3.87-.41,10.38,2.85,15.26s7.94,7.94,7.94,7.94l.81,6.71,13.02-2.24-.81-6.31s6.71-2.24,6.71-3.46-1.63-6.71-1.63-6.71c0,0,2.24-2.24,1.63-3.05-.61-.81-4.68-4.48-4.68-4.48,0,0-3.66-6.51-6.1-8.95-2.44-2.44-7.94-3.05-13.02-.81Z" style="fill:#fff; stroke:#263238; stroke-linecap:round; stroke-linejoin:round;"></path><path d="M131.07,273.93s-4.39-.12-4.02,.53c.37,.66,4.02,1.87,4.61,1.21,.59-.66-.59-1.75-.59-1.75Z" style="fill:#263238; stroke:#263238; stroke-linecap:round; stroke-linejoin:round;"></path><path d="M131.94,278.76s-.15,1.05-.98,1.96-2.26,1.66-1.43,1.96c.83,.3,2.79,.6,3.39-.45,.6-1.05,.23-4.22-.98-3.46Z" style="fill:#263238; stroke:#263238; stroke-linecap:round; stroke-linejoin:round;"></path><path d="M121.84,276.7s-4.07,.41-5.29-.81-1.83-4.48,0-5.49c1.83-1.02,2.44,.61,2.44,.61,0,0,1.63-.41,2.24-.61,.61-.2-1.83-4.68-1.83-4.68l2.44-8.34c-2.44-2.44-7.94-3.05-13.02-.81,0,0-5.09,2.24-6.71,6.1-1.63,3.87-.41,10.38,2.85,15.26s7.94,7.94,7.94,7.94l3.26-3.26c3.26-3.26,5.7-5.9,5.7-5.9Z" style="fill:#263238; stroke:#263238; stroke-linecap:round; stroke-linejoin:round;"></path><path d="M106.41,278.05s-6.8,1.17-6.61,5.25,4.56,7.39,7.51,6.09c6.64-2.94,2.01-8.03,1.24-9.39-.78-1.36-2.14-1.94-2.14-1.94Z" style="fill:#263238; stroke:#263238; stroke-linecap:round; stroke-linejoin:round;"></path><path d="M125.99,263.06c-1.25-2-2.87-4.4-4.15-5.69-2.44-2.44-7.94-3.05-13.02-.81,0,0-5.09,2.24-6.71,6.1-1.59,3.77-.46,10.06,2.62,14.9l21.27-14.5Z" style="fill:#FF81AE; stroke:#263238; stroke-linecap:round; stroke-linejoin:round;"></path><path d="M127.39,267.31c.38,.65,.44,1.33,.13,1.51s-.87-.2-1.25-.85-.44-1.33-.13-1.51c.31-.18,.87,.2,1.25,.85Z" style="fill:#263238;"></path><path d="M124.17,266.12s.14-1.73,1.73-1.58" style="fill:none; stroke:#263238; stroke-linecap:round; stroke-linejoin:round;"></path></g><g><g><path d="M182.87,433.74l13.32-.68s2.93,.68,.9,3.61c-2.03,2.93-7,9.03-13.09,11.96-6.1,2.93-8.35,4.06-10.61,3.16-2.26-.9-4.29-7.45-4.29-7.45l13.77-10.61Z" style="fill:#fff; stroke:#263238; stroke-linecap:round; stroke-linejoin:round;"></path><path d="M197.09,436.68c1.48-2.14,.32-3.08-.41-3.43-1.63,3.15-4.28,7.48-7.49,9.75-4.81,3.41-15.12,6.63-17.38,7.32,.5,.71,1.03,1.27,1.58,1.49,2.26,.9,4.52-.23,10.61-3.16,6.1-2.93,11.06-9.03,13.09-11.96Z" style="fill:#fff; stroke:#263238; stroke-linecap:round; stroke-linejoin:round;"></path></g><path d="M104.09,360.37l5.64,40.63s-12.64,22.8-13.09,25.06c-.45,2.26-3.84,13.32-3.84,13.32,0,0,4.51,2.71,6.32,2.71s9.26-1.35,9.26-1.35c0,0,4.51-16.03,5.19-17.61,.68-1.58,11.29-21.45,11.74-23.03,.45-1.58,4.74-27.77,4.74-27.77l18.29,23.25,20.99,50.34s4.29-1.35,7.45-4.06c3.16-2.71,6.1-8.13,6.1-8.13,0,0-.45-3.61-2.93-4.74-2.48-1.13-4.74-2.71-4.74-2.71,0,0-9.48-37.7-9.93-39.51-.45-1.81-13.54-31.15-13.54-31.15l-47.63,4.74Z" style="fill:#FF81AE; stroke:#263238; stroke-linecap:round; stroke-linejoin:round;"></path><line x1="130.05" y1="372.34" x2="123.24" y2="369.04" style="fill:none; stroke:#263238; stroke-linecap:round; stroke-linejoin:round;"></line><g><path d="M92.8,439.38l-1.13,9.93s2.71,2.26,6.77,2.26,7.68-1.35,7.68-1.35l2.26-9.48s-11.96,1.13-15.58-1.35Z" style="fill:#fff; stroke:#263238; stroke-linecap:round; stroke-linejoin:round;"></path><path d="M91.83,447.91l-.16,1.41s2.71,2.26,6.77,2.26,7.68-1.35,7.68-1.35l.29-1.22c-7.09,1.3-12.11-.08-14.58-1.09Z" style="fill:#fff; stroke:#263238; stroke-linecap:round; stroke-linejoin:round;"></path></g></g><g><path d="M123.54,288.15s-10.84,1.71-14.64,3.23c-3.8,1.52-13.88,9.7-13.88,9.7l-10.46,21.68,19.78,7.99-2.09,32.52s18.26,1.52,28.91-.19c10.65-1.71,23.39-5.9,23.39-5.9,0,0-5.52-15.79-5.71-17.31s-1.71-17.12-1.71-17.12l9.7,8.37,4.94-20.92s-19.59-17.31-21.11-18.45-17.12-3.61-17.12-3.61Z" style="fill:#FF81AE; stroke:#263238; stroke-linecap:round; stroke-linejoin:round;"></path><path d="M104.34,330.75s.38-8.37,.38-10.08-4.75-11.41-4.75-11.41" style="fill:none; stroke:#263238; stroke-linecap:round; stroke-linejoin:round;"></path><path d="M104.72,320.67s-7.8-8.37-9.51-11.79" style="fill:none; stroke:#263238; stroke-linecap:round; stroke-linejoin:round;"></path><polyline points="136.86 312.49 147.13 322.76 135.34 314.78" style="fill:none; stroke:#263238; stroke-linecap:round; stroke-linejoin:round;"></polyline></g><g><path d="M161.77,310.21l2.09,1.71,10.46-17.5s1.14-2.09,2.09-3.23c.95-1.14,3.99-1.71,5.33-3.23,1.33-1.52,2.47-1.52,1.71,.38-.76,1.9-2.47,2.66-3.04,3.23-.57,.57,8.18,1.14,8.18,1.14,0,0,0,.57-.76,1.52-.76,.95-1.71,1.14-1.71,1.14l-8.56,3.42s-2.66,14.26-4.18,20.16c-1.52,5.9-2.09,8.75-3.42,9.13-1.33,.38-11.98-1.52-11.98-1.52l3.8-16.36Z" style="fill:#fff; stroke:#263238; stroke-linecap:round; stroke-linejoin:round;"></path><path d="M187.83,294.24c.76-.95,1.2-2.64,1.2-2.64,0,0-9.19,.55-8.62-.02,.57-.57,2.28-1.33,3.04-3.23,.76-1.9-.38-1.9-1.71-.38-1.33,1.52-4.37,2.09-5.33,3.23-.95,1.14-2.09,3.23-2.09,3.23l-4.3,7.19,6.36,3.29c.68-3.47,1.17-6.11,1.17-6.11l8.56-3.42s.95-.19,1.71-1.14Z" style="fill:#FF81AE; stroke:#263238; stroke-linecap:round; stroke-linejoin:round;"></path></g></g></g></g></g></svg>
