<svg xmlns="http://www.w3.org/2000/svg" viewBox="0 0 500 500"><g id="freepik--background-simple--inject-87"><path d="M436.94,419.9H65S53.19,400,45,360s30.84-25.4,40.82-59.88-33.56-27.21-29.93-74.39,63.5-48.08,92.53-41.73,25.4-15.42,59-51.71,84.37-32.66,109.77-4.53,17.23,57.15,49,57.15S427,191.29,446,252.07s-15.77,88.56-15.14,116A300.58,300.58,0,0,0,436.94,419.9Z" style="fill:#FF81AE"></path><path d="M436.94,419.9H65S53.19,400,45,360s30.84-25.4,40.82-59.88-33.56-27.21-29.93-74.39,63.5-48.08,92.53-41.73,25.4-15.42,59-51.71,84.37-32.66,109.77-4.53,17.23,57.15,49,57.15S427,191.29,446,252.07s-15.77,88.56-15.14,116A300.58,300.58,0,0,0,436.94,419.9Z" style="fill:#fff;opacity:0.7000000000000001"></path></g><g id="freepik--Bulb--inject-87"><path d="M215.41,419.9c-9.11-13.87-48-72.19-59.38-73.75-11.09-1.52-50.5,57.45-61.16,73.75Z" style="fill:#2e353a;stroke:#2e353a;stroke-linecap:round;stroke-linejoin:round"></path><line x1="265.28" y1="79.13" x2="265.28" y2="213.62" style="fill:none;stroke:#2e353a;stroke-linecap:round;stroke-linejoin:round;stroke-width:3px"></line><line x1="281.26" y1="82.74" x2="281.26" y2="213.62" style="fill:none;stroke:#2e353a;stroke-linecap:round;stroke-linejoin:round;stroke-width:3px"></line><line x1="298.78" y1="154.36" x2="298.78" y2="281.13" style="fill:none;stroke:#2e353a;stroke-linecap:round;stroke-linejoin:round;stroke-width:3px"></line><line x1="317.33" y1="82.74" x2="317.33" y2="281.13" style="fill:none;stroke:#2e353a;stroke-linecap:round;stroke-linejoin:round;stroke-width:3px"></line><line x1="335.88" y1="82.74" x2="335.88" y2="217.23" style="fill:none;stroke:#2e353a;stroke-linecap:round;stroke-linejoin:round;stroke-width:3px"></line><line x1="251.37" y1="97.16" x2="336.4" y2="97.16" style="fill:none;stroke:#2e353a;stroke-linecap:round;stroke-linejoin:round;stroke-width:3px"></line><line x1="251.37" y1="127.05" x2="343.58" y2="127.05" style="fill:none;stroke:#2e353a;stroke-linecap:round;stroke-linejoin:round;stroke-width:3px"></line><line x1="249.83" y1="154.36" x2="352.37" y2="154.36" style="fill:none;stroke:#2e353a;stroke-linecap:round;stroke-linejoin:round;stroke-width:3px"></line><line x1="248.28" y1="184.77" x2="352.37" y2="184.77" style="fill:none;stroke:#2e353a;stroke-linecap:round;stroke-linejoin:round;stroke-width:3px"></line><line x1="267.86" y1="217.74" x2="346.7" y2="217.74" style="fill:none;stroke:#2e353a;stroke-linecap:round;stroke-linejoin:round;stroke-width:3px"></line><line x1="288.47" y1="249.69" x2="340" y2="249.69" style="fill:none;stroke:#2e353a;stroke-linecap:round;stroke-linejoin:round;stroke-width:3px"></line><line x1="152.81" y1="91.9" x2="171" y2="106.14" style="fill:none;stroke:#2e353a;stroke-linecap:round;stroke-linejoin:round;stroke-width:2px"></line><line x1="189.19" y1="76.88" x2="195.52" y2="86.37" style="fill:none;stroke:#2e353a;stroke-linecap:round;stroke-linejoin:round;stroke-width:2px"></line><line x1="221.62" y1="53.94" x2="227.16" y2="71.34" style="fill:none;stroke:#2e353a;stroke-linecap:round;stroke-linejoin:round;stroke-width:2px"></line><path d="M325.4,277.54h-30V206.21H254.7V79.88a100,100,0,0,0-87.42,146.73c3.26,7.59,10.92,26.18,18.59,50.22,7.09,22.19,10.79,44.5,10.79,47.87,0,.33,0,.67,0,1a7.48,7.48,0,0,0,7.47,7.74H307.38a7.49,7.49,0,0,0,7.47-7.74c0-.36,0-.7,0-1C314.83,321.37,318.46,299.49,325.4,277.54Z" style="fill:#FF81AE;stroke:#2e353a;stroke-linecap:round;stroke-linejoin:round;stroke-width:2px"></path><path d="M220.81,96a80.31,80.31,0,0,1,8.89-3.39" style="fill:none;stroke:#2e353a;stroke-linecap:round;stroke-linejoin:round;stroke-width:2px"></path><path d="M187.51,121.34s8.15-13,26.06-21.75" style="fill:none;stroke:#2e353a;stroke-linecap:round;stroke-linejoin:round;stroke-width:2px"></path><path d="M189.65,265.26c3.71,12.12,8.62,28.91,10.32,38.29,2.88,15.82,1,24,7.2,25.41" style="fill:none;stroke:#2e353a;stroke-linecap:round;stroke-linejoin:round;stroke-width:2px"></path><path d="M185.11,250.8s1,3.25,2.61,8.23" style="fill:none;stroke:#2e353a;stroke-linecap:round;stroke-linejoin:round;stroke-width:2px"></path><path d="M249.42,332.47v-95.6s4-25-9-25-12,13,3,27,38,1,41-10-5-16-10-7,0,111,0,111" style="fill:none;stroke:#2e353a;stroke-linecap:round;stroke-linejoin:round;stroke-width:2px"></path><rect x="202.08" y="332.86" width="107.91" height="25.04" style="fill:#fff;stroke:#2e353a;stroke-linecap:round;stroke-linejoin:round;stroke-width:2px"></rect><rect x="202.08" y="363.86" width="107.91" height="25.04" style="fill:#fff;stroke:#2e353a;stroke-linecap:round;stroke-linejoin:round;stroke-width:2px"></rect><rect x="202.08" y="357.9" width="107.91" height="5.96" style="fill:#2e353a;stroke:#2e353a;stroke-linecap:round;stroke-linejoin:round"></rect><rect x="202.08" y="394.86" width="107.91" height="25.04" style="fill:#fff;stroke:#2e353a;stroke-linecap:round;stroke-linejoin:round;stroke-width:2px"></rect><line x1="298.7" y1="354.55" x2="306.72" y2="354.55" style="fill:none;stroke:#2e353a;stroke-linecap:round;stroke-linejoin:round"></line><line x1="206.32" y1="354.55" x2="294.84" y2="354.55" style="fill:none;stroke:#2e353a;stroke-linecap:round;stroke-linejoin:round"></line><line x1="277.9" y1="386.04" x2="303.75" y2="386.04" style="fill:none;stroke:#2e353a;stroke-linecap:round;stroke-linejoin:round"></line><line x1="222.34" y1="386.04" x2="274.93" y2="386.04" style="fill:none;stroke:#2e353a;stroke-linecap:round;stroke-linejoin:round"></line><line x1="213.73" y1="386.04" x2="218.18" y2="386.04" style="fill:none;stroke:#2e353a;stroke-linecap:round;stroke-linejoin:round"></line><rect x="202.08" y="388.9" width="107.91" height="5.96" style="fill:#2e353a;stroke:#2e353a;stroke-linecap:round;stroke-linejoin:round"></rect><rect x="216.13" y="400.35" width="36.94" height="19.23" style="fill:#FF81AE;stroke:#2e353a;stroke-linecap:round;stroke-linejoin:round"></rect><rect x="264.2" y="400.35" width="36.94" height="19.23" style="fill:#FF81AE;stroke:#2e353a;stroke-linecap:round;stroke-linejoin:round"></rect></g><g id="freepik--Ground--inject-87"><path d="M334.37,419.9c-7.08-6.21-37.31-32.32-46.11-33-8.62-.69-39.22,25.72-47.5,33Z" style="fill:#2e353a;stroke:#2e353a;stroke-linecap:round;stroke-linejoin:round"></path><line x1="451.08" y1="419.9" x2="459.76" y2="419.9" style="fill:#fff;stroke:#2e353a;stroke-linecap:round;stroke-linejoin:round"></line><line x1="53.74" y1="419.9" x2="442.4" y2="419.9" style="fill:#fff;stroke:#2e353a;stroke-linecap:round;stroke-linejoin:round"></line><line x1="40.24" y1="419.9" x2="46.99" y2="419.9" style="fill:#fff;stroke:#2e353a;stroke-linecap:round;stroke-linejoin:round"></line></g></svg>